<svg xmlns="http://www.w3.org/2000/svg" viewBox="0 0 512 512">
  <defs>
    <linearGradient id="bg" x1="0%" y1="0%" x2="100%" y2="100%">
      <stop offset="0%" style="stop-color:#43A047"/>
      <stop offset="100%" style="stop-color:#66BB6A"/>
    </linearGradient>
  </defs>
  <rect width="512" height="512" rx="108" fill="url(#bg)"/>
  <g transform="translate(256,256)">
    <!-- Pill capsule -->
    <rect x="-120" y="-45" width="240" height="90" rx="45" fill="white" opacity="0.95"/>
    <rect x="0" y="-45" width="120" height="90" rx="0" fill="white" opacity="0.8"/>
    <line x1="0" y1="-44" x2="0" y2="44" stroke="#43A047" stroke-width="2" opacity="0.3"/>
    <!-- Plus sign -->
    <rect x="-55" y="-8" width="40" height="16" rx="4" fill="#43A047" opacity="0.6"/>
    <rect x="-43" y="-20" width="16" height="40" rx="4" fill="#43A047" opacity="0.6"/>
    <!-- Heart -->
    <g transform="translate(55, 0) scale(0.35)">
      <path d="M0-40 C-25-65-65-40-65-10 C-65 20-30 50 0 70 C30 50 65 20 65-10 C65-40 25-65 0-40Z" fill="#E8F5E9" opacity="0.8"/>
    </g>
  </g>
</svg>
